<svg width="8" height="8" viewBox="0 0 8 8" fill="none" xmlns="http://www.w3.org/2000/svg">
<path d="M5.90334 1.26336C6.08929 0.989086 6.46237 0.917484 6.73664 1.10343C7.01091 1.28938 7.08252 1.66247 6.89657 1.93675L3.64239 6.7367C3.40438 7.08777 2.88717 7.08777 2.64916 6.7367L1.10343 4.45673C0.917485 4.18245 0.989086 3.80936 1.26336 3.62342C1.53763 3.43747 1.91071 3.50907 2.09666 3.78334L3.14578 5.3308L5.90334 1.26336Z" fill="#A1C487"/>
<path d="M5.90334 1.26336C6.08929 0.989086 6.46237 0.917484 6.73664 1.10343C7.01091 1.28938 7.08252 1.66247 6.89657 1.93675L3.64239 6.7367C3.40438 7.08777 2.88717 7.08777 2.64916 6.7367L1.10343 4.45673C0.917485 4.18245 0.989086 3.80936 1.26336 3.62342C1.53763 3.43747 1.91071 3.50907 2.09666 3.78334L3.14578 5.3308L5.90334 1.26336Z" stroke="black"/>
<path d="M5.90334 1.26336C6.08929 0.989086 6.46237 0.917484 6.73664 1.10343C7.01091 1.28938 7.08252 1.66247 6.89657 1.93675L3.64239 6.7367C3.40438 7.08777 2.88717 7.08777 2.64916 6.7367L1.10343 4.45673C0.917485 4.18245 0.989086 3.80936 1.26336 3.62342C1.53763 3.43747 1.91071 3.50907 2.09666 3.78334L3.14578 5.3308L5.90334 1.26336Z" stroke="black" stroke-opacity="0.2"/>
</svg>
