<svg aria-hidden="true" style="position: absolute; width: 0; height: 0; overflow: hidden;" version="1.1" xmlns="http://www.w3.org/2000/svg" xmlns:xlink="http://www.w3.org/1999/xlink">
<defs>
<symbol id="youtube" viewBox="0 0 31 32">
<path d="M23.404 6.327c-1.313-0.077-4.017-0.154-8.11-0.154h-0.541c-3.939 0-6.566 0.077-7.879 0.232-1.777 0.154-3.012 0.618-3.708 1.236-0.618 0.541-1.081 1.545-1.236 2.858-0.077 0.85-0.154 2.626-0.154 5.33v0.386c0 2.549 0.077 4.326 0.232 5.175 0.232 1.236 0.618 2.163 1.39 2.703 0.772 0.618 2.085 1.004 3.939 1.159 1.313 0.077 4.017 0.154 8.11 0.154h0.541c3.939 0 6.566-0.077 7.879-0.232 1.777-0.154 3.012-0.618 3.708-1.236 0.618-0.541 1.081-1.545 1.236-2.858 0.077-0.85 0.154-2.626 0.154-5.33v-0.386c0-2.549-0.077-4.326-0.232-5.175-0.232-1.236-0.618-2.163-1.39-2.703-0.772-0.618-2.086-1.004-3.939-1.159zM20.392 15.828l-8.497 5.098v-10.196l8.497 5.098z"></path>
</symbol>
<symbol id="instagram" viewBox="0 0 31 32">
<path d="M27.727 10.92c-0.015-1.037-0.207-2.066-0.575-3.037-0.644-1.657-1.955-2.967-3.614-3.608-0.959-0.36-1.974-0.554-3-0.576-1.32-0.059-1.739-0.075-5.091-0.075s-3.781 0-5.092 0.075c-1.025 0.022-2.040 0.215-2.999 0.576-1.659 0.641-2.972 1.951-3.614 3.608-0.361 0.958-0.556 1.97-0.575 2.994-0.059 1.32-0.077 1.738-0.077 5.084s0 3.774 0.077 5.084c0.021 1.025 0.214 2.036 0.575 2.997 0.644 1.655 1.955 2.965 3.615 3.607 0.955 0.373 1.97 0.584 2.999 0.617 1.322 0.059 1.74 0.077 5.092 0.077s3.781 0 5.092-0.077c1.025-0.021 2.040-0.214 3-0.574 1.659-0.643 2.97-1.953 3.614-3.608 0.361-0.959 0.554-1.97 0.575-2.997 0.059-1.318 0.077-1.736 0.077-5.084-0.003-3.346-0.003-3.771-0.080-5.082zM15.439 22.289c-3.506 0-6.345-2.835-6.345-6.335s2.84-6.335 6.345-6.335c3.503 0 6.346 2.835 6.346 6.335s-2.843 6.335-6.346 6.335zM22.037 10.862c-0.819 0-1.48-0.66-1.48-1.477s0.66-1.477 1.48-1.477c0.817 0 1.478 0.66 1.478 1.477s-0.662 1.477-1.478 1.477z"></path>
<path d="M15.441 19.822c2.135 0 3.866-1.731 3.866-3.866s-1.731-3.866-3.866-3.866c-2.135 0-3.866 1.731-3.866 3.866s1.731 3.866 3.866 3.866z"></path>
</symbol>
<symbol id="facebook" viewBox="0 0 31 32">
<path d="M18.847 5.015c0.232 0 0.463 0 0.927 0v3.476c-0.232 0-0.695 0-1.159 0s-0.927 0-1.159 0.232c-0.232 0.232-0.232 0.463-0.232 1.004 0 0.463 0 0.772 0 1.236h2.549v2.935h-2.549v12.745h-3.939v-12.822h-2.086v-2.935h2.086v-1.004c0-1.699 0.232-2.935 0.695-3.476 0.695-1.004 2.086-1.468 4.171-1.468 0.232 0.077 0.463 0.077 0.695 0.077z"></path>
</symbol>
<symbol id="burger-menu" viewBox="0 0 32 32">
<path d="M2.667 7.993c0-0.733 0.595-1.327 1.327-1.327h10.68c0.352 0 0.689 0.14 0.938 0.389s0.389 0.586 0.389 0.938c0 0.352-0.14 0.689-0.389 0.938s-0.586 0.389-0.938 0.389h-10.68c-0.352 0-0.689-0.14-0.938-0.389s-0.389-0.586-0.389-0.938zM2.667 16c0-0.733 0.595-1.327 1.327-1.327h24.013c0.352 0 0.689 0.14 0.938 0.389s0.389 0.586 0.389 0.938c0 0.352-0.14 0.689-0.389 0.938s-0.586 0.389-0.938 0.389h-24.013c-0.352 0-0.689-0.14-0.938-0.389s-0.389-0.586-0.389-0.938zM3.993 22.68c-0.352 0-0.689 0.14-0.938 0.389s-0.389 0.586-0.389 0.938c0 0.352 0.14 0.689 0.389 0.938s0.586 0.389 0.938 0.389h16.013c0.352 0 0.689-0.14 0.938-0.389s0.389-0.586 0.389-0.938c0-0.352-0.14-0.689-0.389-0.938s-0.586-0.389-0.938-0.389h-16.013z"></path>
</symbol>
<symbol id="dott" viewBox="0 0 32 32">
<path d="M30.782 18.585c0 7.401-5.999 13.4-13.4 13.4s-13.4-5.999-13.4-13.4c0-7.401 5.999-13.4 13.4-13.4s13.4 5.999 13.4 13.4z"></path>
</symbol>
<symbol id="cross" viewBox="0 0 32 32">
<path stroke-linejoin="round" stroke-linecap="round" stroke-miterlimit="4" stroke-width="3.4286" d="M24 8l-16 16"></path>
<path stroke-linejoin="round" stroke-linecap="round" stroke-miterlimit="4" stroke-width="3.4286" d="M8 8l16 16"></path>
</symbol>
<symbol id="icon-vector" viewBox="0 0 32 32">
<path d="M20.061 10.162c0.397-0.585 1.193-0.738 1.778-0.341s0.738 1.193 0.341 1.778l-6.942 10.24c-0.508 0.749-1.611 0.749-2.119 0l-3.298-4.864c-0.397-0.585-0.244-1.381 0.341-1.778s1.381-0.244 1.778 0.341l2.238 3.301 5.883-8.677z"></path>
<path stroke-linejoin="miter" stroke-linecap="butt" stroke-miterlimit="4" stroke-width="2.4" d="M6.4 1.2h19.2c2.872 0 5.2 2.328 5.2 5.2v19.2c0 2.872-2.328 5.2-5.2 5.2h-19.2c-2.872 0-5.2-2.328-5.2-5.2v-19.2c0-2.872 2.328-5.2 5.2-5.2z"></path>
</symbol>
<symbol id="shopping-cart" viewBox="0 0 32 32">
<path stroke-linejoin="round" stroke-linecap="round" stroke-miterlimit="4" stroke-width="2.6667" d="M12 29.333c0.736 0 1.333-0.597 1.333-1.333s-0.597-1.333-1.333-1.333c-0.736 0-1.333 0.597-1.333 1.333s0.597 1.333 1.333 1.333z"></path>
<path stroke-linejoin="round" stroke-linecap="round" stroke-miterlimit="4" stroke-width="2.6667" d="M26.667 29.333c0.736 0 1.333-0.597 1.333-1.333s-0.597-1.333-1.333-1.333c-0.736 0-1.333 0.597-1.333 1.333s0.597 1.333 1.333 1.333z"></path>
<path stroke-linejoin="round" stroke-linecap="round" stroke-miterlimit="4" stroke-width="2.4" d="M1.333 1.333h5.333l3.573 17.853c0.122 0.614 0.456 1.165 0.943 1.558s1.098 0.601 1.723 0.589h12.96c0.626 0.012 1.236-0.197 1.723-0.589s0.821-0.944 0.943-1.558l2.133-11.187h-22.667"></path>
</symbol>
<symbol id="logo" viewBox="0 0 32 32">
<path d="M29.082 0.314h-4.009c-1.237 0-2.24 0.983-2.24 2.195v3.929c0 1.212 1.003 2.195 2.24 2.195h4.009c1.237 0 2.24-0.983 2.24-2.195v-3.929c0-1.212-1.003-2.195-2.24-2.195z"></path>
<path d="M6.73 23.040h-4.318c-1.332 0-2.412 0.983-2.412 2.195v3.929c0 1.213 1.080 2.195 2.412 2.195h4.318c1.332 0 2.412-0.983 2.412-2.195v-3.929c0-1.212-1.080-2.195-2.412-2.195z"></path>
<path d="M6.25 11.582h-4.009c-1.237 0-2.24 0.983-2.24 2.195v3.929c0 1.212 1.003 2.195 2.24 2.195h4.009c1.237 0 2.24-0.983 2.24-2.195v-3.929c0-1.212-1.003-2.195-2.24-2.195z"></path>
<path d="M17.766 22.978h-4.009c-1.237 0-2.24 0.983-2.24 2.195l-0 3.929c0 1.212 1.003 2.195 2.241 2.195h4.009c1.237 0 2.24-0.983 2.24-2.195v-3.929c0-1.212-1.003-2.195-2.24-2.195z"></path>
<path d="M6.25 0.086h-4.009c-1.237 0-2.24 0.983-2.24 2.195v3.929c0 1.212 1.003 2.195 2.24 2.195h4.009c1.237 0 2.24-0.983 2.24-2.195v-3.929c0-1.212-1.003-2.195-2.24-2.195z"></path>
<path d="M18.076 11.697h-4.009c-1.237 0-2.24 0.983-2.24 2.195v3.929c0 1.212 1.003 2.195 2.24 2.195h4.009c1.237 0 2.24-0.983 2.24-2.195v-3.929c0-1.212-1.003-2.195-2.24-2.195z"></path>
<path d="M29.333 22.978h-4.010c-1.237 0-2.24 0.983-2.24 2.195v3.929c0 1.212 1.003 2.195 2.24 2.195h4.009c1.237 0 2.24-0.983 2.24-2.195v-3.929c0-1.212-1.003-2.195-2.24-2.195z"></path>
<path d="M17.591 0.224h-4.009c-1.237 0-2.24 0.983-2.24 2.195v3.929c0 1.212 1.003 2.195 2.24 2.195h4.009c1.237 0 2.24-0.984 2.24-2.196v-3.929c0-1.212-1.003-2.195-2.24-2.195z"></path>
<path d="M29.044 11.926h-4.010c-1.237 0-2.24 0.983-2.24 2.195v3.929c0 1.212 1.003 2.195 2.24 2.195h4.009c1.237 0 2.24-0.983 2.24-2.195v-3.929c0-1.212-1.003-2.195-2.24-2.195z"></path>
</symbol>
<symbol id="strelka" viewBox="0 0 30 32">
<path d="M29.867 4.588l-4.425-4.425v22.123l-22.123-22.123-3.319 3.319 22.124 22.123h-22.124l4.425 4.425h25.442v-25.442z"></path>
</symbol>
<symbol id="empty-checkbox" viewBox="0 0 32 32">
<path stroke-linejoin="miter" stroke-linecap="butt" stroke-miterlimit="4" stroke-width="3" d="M8 1.5h16c3.59 0 6.5 2.91 6.5 6.5v16c0 3.59-2.91 6.5-6.5 6.5h-16c-3.59 0-6.5-2.91-6.5-6.5v-16c0-3.59 2.91-6.5 6.5-6.5z"></path>
</symbol>
<symbol id="shadow" viewBox="0 0 85 32">
<path d="M42.723 22.468c18.331 0 33.192-2.896 33.192-6.468s-14.86-6.468-33.191-6.468c-18.331 0-33.191 2.896-33.191 6.468s14.86 6.468 33.191 6.468z"></path>
</symbol>


</defs>
</svg>
